<mxfile host="Electron" modified="2024-02-01T13:43:23.515Z" agent="Mozilla/5.0 (X11; Linux x86_64) AppleWebKit/537.36 (KHTML, like Gecko) draw.io/22.1.21 Chrome/120.0.6099.109 Electron/28.1.0 Safari/537.36" etag="cM6iwWCDcB7sLz46imdo" version="22.1.21" type="device">
  <diagram name="Page-1" id="oe3zFpYNGRPz1iMDpquB">
    <mxGraphModel dx="1061" dy="627" grid="1" gridSize="1" guides="1" tooltips="1" connect="1" arrows="1" fold="1" page="1" pageScale="1" pageWidth="1169" pageHeight="827" math="0" shadow="0">
      <root>
        <mxCell id="0" />
        <mxCell id="1" parent="0" />
        <mxCell id="VsQctHywEg8GMkeApocd-3" value="" style="pointerEvents=1;verticalLabelPosition=bottom;shadow=0;dashed=0;align=center;html=1;verticalAlign=top;shape=mxgraph.electrical.waveforms.pulse_1;" vertex="1" parent="1">
          <mxGeometry x="80" y="80" width="80" height="40" as="geometry" />
        </mxCell>
        <mxCell id="VsQctHywEg8GMkeApocd-4" value="" style="pointerEvents=1;verticalLabelPosition=bottom;shadow=0;dashed=0;align=center;html=1;verticalAlign=top;shape=mxgraph.electrical.waveforms.pulse_1;" vertex="1" parent="1">
          <mxGeometry x="160" y="80" width="80" height="40" as="geometry" />
        </mxCell>
        <mxCell id="VsQctHywEg8GMkeApocd-5" value="" style="pointerEvents=1;verticalLabelPosition=bottom;shadow=0;dashed=0;align=center;html=1;verticalAlign=top;shape=mxgraph.electrical.waveforms.pulse_1;" vertex="1" parent="1">
          <mxGeometry x="240" y="80" width="80" height="40" as="geometry" />
        </mxCell>
        <mxCell id="VsQctHywEg8GMkeApocd-6" value="" style="pointerEvents=1;verticalLabelPosition=bottom;shadow=0;dashed=0;align=center;html=1;verticalAlign=top;shape=mxgraph.electrical.waveforms.pulse_1;" vertex="1" parent="1">
          <mxGeometry x="320" y="80" width="80" height="40" as="geometry" />
        </mxCell>
        <mxCell id="VsQctHywEg8GMkeApocd-7" value="" style="pointerEvents=1;verticalLabelPosition=bottom;shadow=0;dashed=0;align=center;html=1;verticalAlign=top;shape=mxgraph.electrical.waveforms.pulse_1;" vertex="1" parent="1">
          <mxGeometry x="400" y="80" width="80" height="40" as="geometry" />
        </mxCell>
        <mxCell id="VsQctHywEg8GMkeApocd-8" value="" style="pointerEvents=1;verticalLabelPosition=bottom;shadow=0;dashed=0;align=center;html=1;verticalAlign=top;shape=mxgraph.electrical.waveforms.pulse_1;" vertex="1" parent="1">
          <mxGeometry x="480" y="80" width="80" height="40" as="geometry" />
        </mxCell>
        <mxCell id="VsQctHywEg8GMkeApocd-15" value="clk_100" style="text;html=1;align=center;verticalAlign=middle;whiteSpace=wrap;rounded=0;" vertex="1" parent="1">
          <mxGeometry x="10" y="100" width="60" height="30" as="geometry" />
        </mxCell>
        <mxCell id="VsQctHywEg8GMkeApocd-17" value="" style="pointerEvents=1;verticalLabelPosition=bottom;shadow=0;dashed=0;align=center;html=1;verticalAlign=top;shape=mxgraph.electrical.waveforms.step_1;" vertex="1" parent="1">
          <mxGeometry x="80" y="140" width="40" height="40" as="geometry" />
        </mxCell>
        <mxCell id="VsQctHywEg8GMkeApocd-18" value="" style="pointerEvents=1;verticalLabelPosition=bottom;shadow=0;dashed=0;align=center;html=1;verticalAlign=top;shape=mxgraph.electrical.waveforms.step_2;" vertex="1" parent="1">
          <mxGeometry x="120" y="140" width="130" height="40" as="geometry" />
        </mxCell>
        <mxCell id="VsQctHywEg8GMkeApocd-19" value="" style="pointerEvents=1;verticalLabelPosition=bottom;shadow=0;dashed=0;align=center;html=1;verticalAlign=top;shape=mxgraph.electrical.waveforms.step_1;" vertex="1" parent="1">
          <mxGeometry x="240" y="140" width="40" height="40" as="geometry" />
        </mxCell>
        <mxCell id="VsQctHywEg8GMkeApocd-20" value="" style="pointerEvents=1;verticalLabelPosition=bottom;shadow=0;dashed=0;align=center;html=1;verticalAlign=top;shape=mxgraph.electrical.waveforms.step_2;" vertex="1" parent="1">
          <mxGeometry x="280" y="140" width="130" height="40" as="geometry" />
        </mxCell>
        <mxCell id="VsQctHywEg8GMkeApocd-21" value="" style="pointerEvents=1;verticalLabelPosition=bottom;shadow=0;dashed=0;align=center;html=1;verticalAlign=top;shape=mxgraph.electrical.waveforms.step_1;" vertex="1" parent="1">
          <mxGeometry x="400" y="140" width="40" height="40" as="geometry" />
        </mxCell>
        <mxCell id="VsQctHywEg8GMkeApocd-22" value="" style="pointerEvents=1;verticalLabelPosition=bottom;shadow=0;dashed=0;align=center;html=1;verticalAlign=top;shape=mxgraph.electrical.waveforms.step_2;" vertex="1" parent="1">
          <mxGeometry x="440" y="140" width="130" height="40" as="geometry" />
        </mxCell>
        <mxCell id="VsQctHywEg8GMkeApocd-29" value="clk_50" style="text;html=1;strokeColor=none;fillColor=none;align=center;verticalAlign=middle;whiteSpace=wrap;rounded=0;" vertex="1" parent="1">
          <mxGeometry x="10" y="160" width="60" height="30" as="geometry" />
        </mxCell>
        <mxCell id="VsQctHywEg8GMkeApocd-30" value="" style="pointerEvents=1;verticalLabelPosition=bottom;shadow=0;dashed=0;align=center;html=1;verticalAlign=top;shape=mxgraph.electrical.waveforms.slow_square_wave;" vertex="1" parent="1">
          <mxGeometry x="100" y="200.08" width="160" height="39.92" as="geometry" />
        </mxCell>
        <mxCell id="VsQctHywEg8GMkeApocd-32" value="" style="endArrow=none;html=1;rounded=0;entryX=0.112;entryY=0.997;entryDx=0;entryDy=0;entryPerimeter=0;exitX=0.003;exitY=0.492;exitDx=0;exitDy=0;exitPerimeter=0;" edge="1" parent="1" source="VsQctHywEg8GMkeApocd-30" target="VsQctHywEg8GMkeApocd-30">
          <mxGeometry width="50" height="50" relative="1" as="geometry">
            <mxPoint x="100" y="221.4" as="sourcePoint" />
            <mxPoint x="133.39999999999998" y="240.08" as="targetPoint" />
          </mxGeometry>
        </mxCell>
        <mxCell id="VsQctHywEg8GMkeApocd-34" value="" style="endArrow=none;html=1;rounded=0;entryX=0.387;entryY=0.99;entryDx=0;entryDy=0;entryPerimeter=0;exitX=0.109;exitY=0.99;exitDx=0;exitDy=0;exitPerimeter=0;" edge="1" parent="1" source="VsQctHywEg8GMkeApocd-30" target="VsQctHywEg8GMkeApocd-30">
          <mxGeometry width="50" height="50" relative="1" as="geometry">
            <mxPoint x="110" y="240.08" as="sourcePoint" />
            <mxPoint x="120" y="260.08" as="targetPoint" />
          </mxGeometry>
        </mxCell>
        <mxCell id="VsQctHywEg8GMkeApocd-35" value="" style="endArrow=none;html=1;rounded=0;entryX=0.627;entryY=-0.002;entryDx=0;entryDy=0;entryPerimeter=0;exitX=0.38;exitY=0.989;exitDx=0;exitDy=0;exitPerimeter=0;" edge="1" parent="1" source="VsQctHywEg8GMkeApocd-30" target="VsQctHywEg8GMkeApocd-30">
          <mxGeometry width="50" height="50" relative="1" as="geometry">
            <mxPoint x="132.5" y="236.08" as="sourcePoint" />
            <mxPoint x="157.5" y="236.08" as="targetPoint" />
          </mxGeometry>
        </mxCell>
        <mxCell id="VsQctHywEg8GMkeApocd-38" value="" style="endArrow=none;html=1;rounded=0;entryX=0.999;entryY=0.506;entryDx=0;entryDy=0;entryPerimeter=0;exitX=0.904;exitY=0;exitDx=0;exitDy=0;exitPerimeter=0;" edge="1" parent="1" source="VsQctHywEg8GMkeApocd-30" target="VsQctHywEg8GMkeApocd-30">
          <mxGeometry width="50" height="50" relative="1" as="geometry">
            <mxPoint x="243" y="200.08" as="sourcePoint" />
            <mxPoint x="261" y="220.08" as="targetPoint" />
          </mxGeometry>
        </mxCell>
        <mxCell id="VsQctHywEg8GMkeApocd-39" value="" style="endArrow=none;html=1;rounded=0;entryX=0.387;entryY=0.99;entryDx=0;entryDy=0;entryPerimeter=0;exitX=0.109;exitY=0.99;exitDx=0;exitDy=0;exitPerimeter=0;" edge="1" parent="1">
          <mxGeometry width="50" height="50" relative="1" as="geometry">
            <mxPoint x="200" y="200.08" as="sourcePoint" />
            <mxPoint x="245" y="200.08" as="targetPoint" />
          </mxGeometry>
        </mxCell>
        <mxCell id="VsQctHywEg8GMkeApocd-41" value="" style="pointerEvents=1;verticalLabelPosition=bottom;shadow=0;dashed=0;align=center;html=1;verticalAlign=top;shape=mxgraph.electrical.waveforms.slow_square_wave;" vertex="1" parent="1">
          <mxGeometry x="180" y="256.08000000000004" width="160" height="39.92" as="geometry" />
        </mxCell>
        <mxCell id="VsQctHywEg8GMkeApocd-42" value="" style="endArrow=none;html=1;rounded=0;entryX=0.112;entryY=0.997;entryDx=0;entryDy=0;entryPerimeter=0;exitX=0.003;exitY=0.492;exitDx=0;exitDy=0;exitPerimeter=0;" edge="1" parent="1" source="VsQctHywEg8GMkeApocd-41" target="VsQctHywEg8GMkeApocd-41">
          <mxGeometry width="50" height="50" relative="1" as="geometry">
            <mxPoint x="180" y="277.4" as="sourcePoint" />
            <mxPoint x="213.39999999999998" y="296.08000000000004" as="targetPoint" />
          </mxGeometry>
        </mxCell>
        <mxCell id="VsQctHywEg8GMkeApocd-43" value="" style="endArrow=none;html=1;rounded=0;entryX=0.387;entryY=0.99;entryDx=0;entryDy=0;entryPerimeter=0;exitX=0.109;exitY=0.99;exitDx=0;exitDy=0;exitPerimeter=0;" edge="1" parent="1" source="VsQctHywEg8GMkeApocd-41" target="VsQctHywEg8GMkeApocd-41">
          <mxGeometry width="50" height="50" relative="1" as="geometry">
            <mxPoint x="190" y="296.08000000000004" as="sourcePoint" />
            <mxPoint x="200" y="316.08" as="targetPoint" />
          </mxGeometry>
        </mxCell>
        <mxCell id="VsQctHywEg8GMkeApocd-44" value="" style="endArrow=none;html=1;rounded=0;entryX=0.627;entryY=-0.002;entryDx=0;entryDy=0;entryPerimeter=0;exitX=0.38;exitY=0.989;exitDx=0;exitDy=0;exitPerimeter=0;" edge="1" parent="1" source="VsQctHywEg8GMkeApocd-41" target="VsQctHywEg8GMkeApocd-41">
          <mxGeometry width="50" height="50" relative="1" as="geometry">
            <mxPoint x="212.5" y="292.08000000000004" as="sourcePoint" />
            <mxPoint x="237.5" y="292.08000000000004" as="targetPoint" />
          </mxGeometry>
        </mxCell>
        <mxCell id="VsQctHywEg8GMkeApocd-45" value="" style="endArrow=none;html=1;rounded=0;entryX=0.999;entryY=0.506;entryDx=0;entryDy=0;entryPerimeter=0;exitX=0.904;exitY=0;exitDx=0;exitDy=0;exitPerimeter=0;" edge="1" parent="1" source="VsQctHywEg8GMkeApocd-41" target="VsQctHywEg8GMkeApocd-41">
          <mxGeometry width="50" height="50" relative="1" as="geometry">
            <mxPoint x="323" y="256.08000000000004" as="sourcePoint" />
            <mxPoint x="341" y="276.08000000000004" as="targetPoint" />
          </mxGeometry>
        </mxCell>
        <mxCell id="VsQctHywEg8GMkeApocd-46" value="" style="endArrow=none;html=1;rounded=0;entryX=0.387;entryY=0.99;entryDx=0;entryDy=0;entryPerimeter=0;exitX=0.109;exitY=0.99;exitDx=0;exitDy=0;exitPerimeter=0;" edge="1" parent="1">
          <mxGeometry width="50" height="50" relative="1" as="geometry">
            <mxPoint x="280" y="256.08000000000004" as="sourcePoint" />
            <mxPoint x="325" y="256.08000000000004" as="targetPoint" />
          </mxGeometry>
        </mxCell>
        <mxCell id="VsQctHywEg8GMkeApocd-47" value="" style="pointerEvents=1;verticalLabelPosition=bottom;shadow=0;dashed=0;align=center;html=1;verticalAlign=top;shape=mxgraph.electrical.waveforms.slow_square_wave;" vertex="1" parent="1">
          <mxGeometry x="260" y="200.16000000000003" width="160" height="39.92" as="geometry" />
        </mxCell>
        <mxCell id="VsQctHywEg8GMkeApocd-48" value="" style="endArrow=none;html=1;rounded=0;entryX=0.112;entryY=0.997;entryDx=0;entryDy=0;entryPerimeter=0;exitX=0.003;exitY=0.492;exitDx=0;exitDy=0;exitPerimeter=0;" edge="1" parent="1" source="VsQctHywEg8GMkeApocd-47" target="VsQctHywEg8GMkeApocd-47">
          <mxGeometry width="50" height="50" relative="1" as="geometry">
            <mxPoint x="260" y="221.48000000000002" as="sourcePoint" />
            <mxPoint x="293.4" y="240.16000000000003" as="targetPoint" />
          </mxGeometry>
        </mxCell>
        <mxCell id="VsQctHywEg8GMkeApocd-49" value="" style="endArrow=none;html=1;rounded=0;entryX=0.387;entryY=0.99;entryDx=0;entryDy=0;entryPerimeter=0;exitX=0.109;exitY=0.99;exitDx=0;exitDy=0;exitPerimeter=0;" edge="1" parent="1" source="VsQctHywEg8GMkeApocd-47" target="VsQctHywEg8GMkeApocd-47">
          <mxGeometry width="50" height="50" relative="1" as="geometry">
            <mxPoint x="270" y="240.16000000000003" as="sourcePoint" />
            <mxPoint x="280" y="260.15999999999997" as="targetPoint" />
          </mxGeometry>
        </mxCell>
        <mxCell id="VsQctHywEg8GMkeApocd-50" value="" style="endArrow=none;html=1;rounded=0;entryX=0.627;entryY=-0.002;entryDx=0;entryDy=0;entryPerimeter=0;exitX=0.38;exitY=0.989;exitDx=0;exitDy=0;exitPerimeter=0;" edge="1" parent="1" source="VsQctHywEg8GMkeApocd-47" target="VsQctHywEg8GMkeApocd-47">
          <mxGeometry width="50" height="50" relative="1" as="geometry">
            <mxPoint x="292.5" y="236.16000000000003" as="sourcePoint" />
            <mxPoint x="317.5" y="236.16000000000003" as="targetPoint" />
          </mxGeometry>
        </mxCell>
        <mxCell id="VsQctHywEg8GMkeApocd-51" value="" style="endArrow=none;html=1;rounded=0;entryX=0.999;entryY=0.506;entryDx=0;entryDy=0;entryPerimeter=0;exitX=0.904;exitY=0;exitDx=0;exitDy=0;exitPerimeter=0;" edge="1" parent="1" source="VsQctHywEg8GMkeApocd-47" target="VsQctHywEg8GMkeApocd-47">
          <mxGeometry width="50" height="50" relative="1" as="geometry">
            <mxPoint x="403" y="200.16000000000003" as="sourcePoint" />
            <mxPoint x="421" y="220.16000000000003" as="targetPoint" />
          </mxGeometry>
        </mxCell>
        <mxCell id="VsQctHywEg8GMkeApocd-52" value="" style="endArrow=none;html=1;rounded=0;entryX=0.387;entryY=0.99;entryDx=0;entryDy=0;entryPerimeter=0;exitX=0.109;exitY=0.99;exitDx=0;exitDy=0;exitPerimeter=0;" edge="1" parent="1">
          <mxGeometry width="50" height="50" relative="1" as="geometry">
            <mxPoint x="360" y="200.16000000000003" as="sourcePoint" />
            <mxPoint x="405" y="200.16000000000003" as="targetPoint" />
          </mxGeometry>
        </mxCell>
        <mxCell id="VsQctHywEg8GMkeApocd-53" value="" style="pointerEvents=1;verticalLabelPosition=bottom;shadow=0;dashed=0;align=center;html=1;verticalAlign=top;shape=mxgraph.electrical.waveforms.slow_square_wave;" vertex="1" parent="1">
          <mxGeometry x="340" y="256.16" width="160" height="39.92" as="geometry" />
        </mxCell>
        <mxCell id="VsQctHywEg8GMkeApocd-54" value="" style="endArrow=none;html=1;rounded=0;entryX=0.112;entryY=0.997;entryDx=0;entryDy=0;entryPerimeter=0;exitX=0.003;exitY=0.492;exitDx=0;exitDy=0;exitPerimeter=0;" edge="1" parent="1" source="VsQctHywEg8GMkeApocd-53" target="VsQctHywEg8GMkeApocd-53">
          <mxGeometry width="50" height="50" relative="1" as="geometry">
            <mxPoint x="340" y="277.47999999999996" as="sourcePoint" />
            <mxPoint x="373.4" y="296.16" as="targetPoint" />
          </mxGeometry>
        </mxCell>
        <mxCell id="VsQctHywEg8GMkeApocd-55" value="" style="endArrow=none;html=1;rounded=0;entryX=0.387;entryY=0.99;entryDx=0;entryDy=0;entryPerimeter=0;exitX=0.109;exitY=0.99;exitDx=0;exitDy=0;exitPerimeter=0;" edge="1" parent="1" source="VsQctHywEg8GMkeApocd-53" target="VsQctHywEg8GMkeApocd-53">
          <mxGeometry width="50" height="50" relative="1" as="geometry">
            <mxPoint x="350" y="296.16" as="sourcePoint" />
            <mxPoint x="360" y="316.15999999999997" as="targetPoint" />
          </mxGeometry>
        </mxCell>
        <mxCell id="VsQctHywEg8GMkeApocd-56" value="" style="endArrow=none;html=1;rounded=0;entryX=0.627;entryY=-0.002;entryDx=0;entryDy=0;entryPerimeter=0;exitX=0.38;exitY=0.989;exitDx=0;exitDy=0;exitPerimeter=0;" edge="1" parent="1" source="VsQctHywEg8GMkeApocd-53" target="VsQctHywEg8GMkeApocd-53">
          <mxGeometry width="50" height="50" relative="1" as="geometry">
            <mxPoint x="372.5" y="292.16" as="sourcePoint" />
            <mxPoint x="397.5" y="292.16" as="targetPoint" />
          </mxGeometry>
        </mxCell>
        <mxCell id="VsQctHywEg8GMkeApocd-57" value="" style="endArrow=none;html=1;rounded=0;entryX=0.999;entryY=0.506;entryDx=0;entryDy=0;entryPerimeter=0;exitX=0.904;exitY=0;exitDx=0;exitDy=0;exitPerimeter=0;" edge="1" parent="1" source="VsQctHywEg8GMkeApocd-53" target="VsQctHywEg8GMkeApocd-53">
          <mxGeometry width="50" height="50" relative="1" as="geometry">
            <mxPoint x="483" y="256.16" as="sourcePoint" />
            <mxPoint x="501" y="276.16" as="targetPoint" />
          </mxGeometry>
        </mxCell>
        <mxCell id="VsQctHywEg8GMkeApocd-58" value="" style="endArrow=none;html=1;rounded=0;entryX=0.387;entryY=0.99;entryDx=0;entryDy=0;entryPerimeter=0;exitX=0.109;exitY=0.99;exitDx=0;exitDy=0;exitPerimeter=0;" edge="1" parent="1">
          <mxGeometry width="50" height="50" relative="1" as="geometry">
            <mxPoint x="440" y="256.16" as="sourcePoint" />
            <mxPoint x="485" y="256.16" as="targetPoint" />
          </mxGeometry>
        </mxCell>
        <mxCell id="VsQctHywEg8GMkeApocd-62" value="" style="curved=1;endArrow=classic;html=1;rounded=0;entryX=0.005;entryY=0.486;entryDx=0;entryDy=0;entryPerimeter=0;dashed=1;strokeWidth=1;exitX=0.767;exitY=0.008;exitDx=0;exitDy=0;exitPerimeter=0;" edge="1" parent="1" source="VsQctHywEg8GMkeApocd-17" target="VsQctHywEg8GMkeApocd-30">
          <mxGeometry width="50" height="50" relative="1" as="geometry">
            <mxPoint x="100" y="164" as="sourcePoint" />
            <mxPoint x="102" y="268" as="targetPoint" />
            <Array as="points">
              <mxPoint x="139" y="186" />
              <mxPoint x="67" y="193" />
              <mxPoint x="82" y="212" />
            </Array>
          </mxGeometry>
        </mxCell>
        <mxCell id="VsQctHywEg8GMkeApocd-63" value="" style="curved=1;endArrow=classic;html=1;rounded=0;entryX=0.002;entryY=0.482;entryDx=0;entryDy=0;entryPerimeter=0;dashed=1;strokeWidth=1;" edge="1" parent="1" target="VsQctHywEg8GMkeApocd-41">
          <mxGeometry width="50" height="50" relative="1" as="geometry">
            <mxPoint x="188" y="180" as="sourcePoint" />
            <mxPoint x="189" y="235" as="targetPoint" />
            <Array as="points">
              <mxPoint x="227" y="202" />
              <mxPoint x="155" y="209" />
              <mxPoint x="151" y="236" />
            </Array>
          </mxGeometry>
        </mxCell>
        <mxCell id="VsQctHywEg8GMkeApocd-64" value="mul-A" style="text;html=1;strokeColor=none;fillColor=none;align=center;verticalAlign=middle;whiteSpace=wrap;rounded=0;" vertex="1" parent="1">
          <mxGeometry x="10" y="208" width="60" height="30" as="geometry" />
        </mxCell>
        <mxCell id="VsQctHywEg8GMkeApocd-65" value="mul-B" style="text;html=1;strokeColor=none;fillColor=none;align=center;verticalAlign=middle;whiteSpace=wrap;rounded=0;" vertex="1" parent="1">
          <mxGeometry x="10" y="264" width="60" height="30" as="geometry" />
        </mxCell>
      </root>
    </mxGraphModel>
  </diagram>
</mxfile>
